# xmcd
#
# Track frame offsets: 
#        150
#        18407
#        38075
#        55865
#        72422
#        93010
#        110085
#        127380
#        145107
#        167752
#        188087
#        205857
#        224717
#        244207
#        263940
#        284847
#        301865
#
# Disc length: 4307 seconds
#
# Revision: 8
# Processed by: cddbd v1.5.1PL2 Copyright (c) Steve Scherf et al.
# Submitted via: ExactAudioCopy v0.95b3
#
DISCID=0b10d111
DTITLE=陈慧娴 - 宝丽金88极品音色系列陈慧娴1
DYEAR=1996
DGENRE=粤语流行歌曲
TTITLE0=逝去的诺言
TTITLE1=玻璃窗的爱
TTITLE2=花店
TTITLE3=痴情意外
TTITLE4=与泪抱拥
TTITLE5=去吧
TTITLE6=傻女
TTITLE7=人生何处不相蓬
TTITLE8=干干阙歌
TTITLE9=夜机
TTITLE10=飘雪
TTITLE11=红茶馆
TTITLE12=今天的爱人是谁
TTITLE13=我寂寞
TTITLE14=留恋
TTITLE15=今天夜里总下雨
TTITLE16=月亮
EXTD=ID3G:   0
EXTT0=
EXTT1=
EXTT2=
EXTT3=
EXTT4=
EXTT5=
EXTT6=
EXTT7=
EXTT8=
EXTT9=
EXTT10=
EXTT11=
EXTT12=
EXTT13=
EXTT14=
EXTT15=
EXTT16=
PLAYORDER=
